<svg width="551" height="150" viewBox="0 0 551 150" fill="none" xmlns="http://www.w3.org/2000/svg">
<path fill-rule="evenodd" clip-rule="evenodd" d="M452.73 50.5538C448.747 45.7619 442.537 42.1835 433.022 41.1557C431.202 40.9576 429.267 40.8586 427.207 40.8586H403.813L443.138 0.918005L418.863 0.880859L386.792 32.674C379.643 39.934 375.628 49.7778 375.628 60.0467V71.8221C375.628 79.0244 377.087 86.9324 382.053 92.9377C386.04 97.7337 392.258 101.308 401.761 102.332H428.792C439.875 102.332 448.141 98.8399 453.222 92.2278C457.127 87.1594 459.155 80.2419 459.155 71.6653C459.155 64.463 457.7 56.5591 452.73 50.5538ZM439.525 73.374C439.525 79.821 436.002 83.2219 429.308 83.2219L403.805 83.3086C399.131 83.3251 395.282 79.5155 395.262 74.7732V67.5049C395.262 61.0538 398.79 57.6528 405.475 57.6528L430.982 57.5662C435.652 57.5496 439.505 61.3592 439.525 66.1057V73.374Z" fill="#F74E00"/>
<path d="M364.561 41.8818C363.695 45.5056 362.228 49.0097 359.895 52.0557C362.305 55.2008 363.793 58.837 364.646 62.597C365.37 65.7421 365.642 68.9779 365.642 72.0693C365.642 91.4721 355.087 102.158 335.929 102.158H291.031L301.98 80.7616H336.469C342.809 80.7616 346.016 77.6372 346.016 71.4874C346.016 68.1277 345.207 63.8476 338.977 62.5929H310.751L321.492 41.2461L340.204 41.2007C345.317 39.6447 346.016 35.732 346.016 32.6076C346.016 26.4578 342.809 22.3098 336.469 22.3098H305.923L294.022 1.19414L335.929 1.9412C355.087 1.9412 365.642 12.627 365.642 32.0297C365.642 35.2532 365.349 38.6211 364.561 41.8818Z" fill="#F74E00"/>
<path fill-rule="evenodd" clip-rule="evenodd" d="M550.102 29.4825C550.135 30.0645 550.147 30.6382 550.147 31.2284V70.488H550.135C550.147 70.8553 550.147 71.2144 550.147 71.5652C550.147 82.2386 546.981 90.2869 540.974 95.3719C535.967 99.6643 528.985 101.889 520.218 101.889H499.064C498.793 101.889 498.522 101.885 498.25 101.881L498.247 101.881C497.796 101.877 497.353 101.86 496.914 101.844C496.819 101.838 496.725 101.833 496.632 101.828L496.459 101.819C496.318 101.813 496.177 101.804 496.037 101.795C495.966 101.79 495.895 101.786 495.825 101.782C495.41 101.753 495.004 101.72 494.602 101.683C494.585 101.678 494.569 101.678 494.553 101.674C494.354 101.654 494.159 101.633 493.963 101.612C489.989 101.175 486.457 100.197 483.397 98.6985C483.193 98.5995 482.99 98.4963 482.791 98.3931C482.299 98.1372 481.824 97.8689 481.36 97.5841C481.169 97.4686 480.982 97.353 480.795 97.2333C480.743 97.1962 480.69 97.1631 480.641 97.1301C480.47 97.0187 480.304 96.9031 480.137 96.7875C480.061 96.7347 479.985 96.6811 479.909 96.6269C479.819 96.5626 479.729 96.4976 479.641 96.4326C479.548 96.3666 479.458 96.2964 479.365 96.2262C479.326 96.1961 479.286 96.166 479.247 96.1359C479.167 96.0752 479.087 96.0145 479.011 95.9538C478.771 95.764 478.536 95.57 478.304 95.3719C472.293 90.2869 469.127 82.2386 469.127 71.5652C469.127 71.1025 469.138 70.6399 469.15 70.159L469.151 70.0958V30.0397C469.151 29.8499 469.16 29.6724 469.172 29.4825C469.253 26.9318 469.525 24.5421 469.993 22.3133C471.326 15.8457 474.232 10.769 478.589 7.17823C483.559 3.05499 490.456 0.917008 499.064 0.917008H520.218C528.83 0.917008 535.707 3.05499 540.698 7.19061C546.546 12.0031 549.785 19.5314 550.102 29.4825ZM530.338 69.9885H530.371V31.8186C530.371 31.3068 530.35 30.8322 530.306 30.3617C529.83 25.1323 526.619 22.466 520.751 22.466H498.524C492.671 22.466 489.46 25.1323 488.977 30.3617C488.936 30.8322 488.912 31.3068 488.912 31.8186V69.9885H488.944C488.924 70.3352 488.912 70.6654 488.912 70.9874C488.912 74.7722 490.119 77.4178 492.513 78.8995C492.61 78.9656 492.708 79.0234 492.805 79.0729C493 79.1884 493.208 79.2916 493.419 79.3866C493.492 79.4196 493.565 79.4526 493.642 79.4815C493.809 79.5517 493.98 79.6177 494.155 79.6796C494.201 79.6966 494.248 79.7126 494.296 79.728C494.34 79.7424 494.386 79.7564 494.431 79.7704L494.432 79.7708C494.549 79.8078 494.667 79.8448 494.789 79.8777C494.935 79.9149 495.081 79.952 495.236 79.9892C495.254 79.9937 495.272 79.9983 495.289 80.0021C495.304 80.0053 495.319 80.0079 495.333 80.0098C495.455 80.0387 495.581 80.0634 495.711 80.0841C496.044 80.1501 496.39 80.1997 496.752 80.2368C496.821 80.245 496.89 80.2533 496.963 80.2574C497.093 80.2698 497.227 80.2822 497.365 80.2905C497.536 80.3028 497.711 80.3111 497.89 80.3152C497.914 80.3193 497.938 80.3193 497.963 80.3193C498.091 80.3222 498.222 80.3251 498.354 80.3266C498.41 80.3272 498.467 80.3276 498.524 80.3276H520.751C527.144 80.3276 530.371 77.1825 530.371 70.9874C530.371 70.6654 530.363 70.3352 530.338 69.9885Z" fill="#F74E00"/>
<path fill-rule="evenodd" clip-rule="evenodd" d="M79.3891 42.8411L79.3932 81.0605L79.3931 81.0666C79.3931 92.8131 88.9034 102.335 100.633 102.335H161.779C181.632 102.335 192.573 91.4469 192.573 71.6644C192.573 57.6148 186.956 40.8577 160.181 40.8577H139.064C128.948 40.8577 127.782 35.5706 127.782 31.5877C127.782 25.4379 131.033 22.3135 137.463 22.3135H202.641V102.331H224.205V79.1762H245.327C274.756 79.1762 290.167 61.639 290.167 40.0446C290.167 18.442 274.756 0.917171 245.481 0.917171H138.007C131.204 0.917171 125.469 2.22555 120.893 4.76388C112.39 9.46908 107.871 18.3966 107.871 31.0057C107.871 40.5729 110.517 51.4114 120.893 57.1608C125.473 59.6992 131.565 61.2469 139.604 61.2469H160.568C171.411 61.2469 172.671 66.8602 172.671 71.0907C172.671 77.5377 169.094 80.9386 162.311 80.9386L100.954 81.0333V0.688232H79.4948L79.3891 0.882221L50.6714 51.393L21.8481 0.688232H0.279297V102.102H21.8481V42.6553L50.6714 93.3559L79.3891 42.8411ZM246.4 60.3926H224.205V22.3135H246.55C259.186 22.3135 267.522 30.077 267.522 41.353C267.522 52.6166 259.186 60.3926 246.4 60.3926Z" fill="#12429D"/>
<path d="M23.4702 149.612L23.4347 130.925L14.4551 146.498H12.8224L3.84283 131.035V149.612H0.435547V123.963H3.34593L13.7097 141.991L23.9316 123.963H26.842L26.8775 149.612H23.4702Z" fill="#666666"/>
<path d="M50.1633 143.2H36.9601L34.2272 149.612H30.5715L41.8226 123.963H45.3363L56.623 149.612H52.8963L50.1633 143.2ZM48.9211 140.269L43.5617 127.7L38.2024 140.269H48.9211Z" fill="#666666"/>
<path d="M81.6956 123.963V149.612H78.7853L63.8784 130.485V149.612H60.3292V123.963H63.2395L78.1464 143.09V123.963H81.6956Z" fill="#666666"/>
<path d="M104.962 143.2H91.7586L89.0257 149.612H85.37L96.6211 123.963H100.135L111.421 149.612H107.695L104.962 143.2ZM103.72 140.269L98.3602 127.7L93.0008 140.269H103.72Z" fill="#666666"/>
<path d="M131.995 136.641H135.402V146.644C134.172 147.695 132.74 148.501 131.108 149.062C129.475 149.624 127.771 149.905 125.997 149.905C123.489 149.905 121.229 149.343 119.218 148.22C117.206 147.072 115.621 145.508 114.462 143.53C113.326 141.527 112.758 139.279 112.758 136.788C112.758 134.296 113.326 132.049 114.462 130.046C115.621 128.042 117.206 126.479 119.218 125.355C121.253 124.232 123.536 123.67 126.068 123.67C128.055 123.67 129.854 124.012 131.463 124.696C133.095 125.355 134.479 126.333 135.615 127.627L133.415 129.899C131.427 127.92 129.025 126.931 126.21 126.931C124.317 126.931 122.613 127.358 121.099 128.213C119.608 129.044 118.437 130.217 117.585 131.731C116.733 133.221 116.307 134.907 116.307 136.788C116.307 138.644 116.733 140.33 117.585 141.844C118.437 143.334 119.608 144.507 121.099 145.362C122.613 146.217 124.305 146.644 126.174 146.644C128.398 146.644 130.339 146.095 131.995 144.995V136.641Z" fill="#666666"/>
<path d="M160.228 146.424V149.612H142.198V123.963H159.731V127.151H145.747V135.029H158.205V138.143H145.747V146.424H160.228Z" fill="#666666"/>
<path d="M166.641 149.832C165.978 149.832 165.41 149.6 164.937 149.136C164.464 148.647 164.227 148.037 164.227 147.304C164.227 146.595 164.464 146.009 164.937 145.545C165.41 145.056 165.978 144.812 166.641 144.812C167.303 144.812 167.859 145.044 168.309 145.508C168.759 145.972 168.983 146.571 168.983 147.304C168.983 148.037 168.747 148.647 168.274 149.136C167.824 149.6 167.28 149.832 166.641 149.832Z" fill="#666666"/>
<path d="M191.135 149.905C189.266 149.905 187.455 149.612 185.705 149.026C183.977 148.415 182.617 147.633 181.623 146.681L182.936 143.823C183.883 144.702 185.089 145.423 186.556 145.985C188.047 146.522 189.573 146.791 191.135 146.791C193.193 146.791 194.731 146.437 195.749 145.728C196.766 144.995 197.275 144.03 197.275 142.833C197.275 141.954 196.991 141.246 196.423 140.708C195.879 140.146 195.193 139.719 194.365 139.426C193.56 139.133 192.413 138.803 190.922 138.436C189.053 137.972 187.538 137.508 186.379 137.044C185.243 136.58 184.261 135.872 183.433 134.919C182.628 133.942 182.226 132.635 182.226 130.998C182.226 129.63 182.569 128.397 183.256 127.297C183.965 126.198 185.03 125.319 186.45 124.659C187.87 124 189.632 123.67 191.738 123.67C193.205 123.67 194.649 123.865 196.068 124.256C197.488 124.647 198.707 125.209 199.724 125.942L198.553 128.873C197.512 128.189 196.4 127.676 195.217 127.334C194.033 126.968 192.874 126.784 191.738 126.784C189.727 126.784 188.213 127.163 187.195 127.92C186.201 128.678 185.705 129.655 185.705 130.852C185.705 131.731 185.988 132.452 186.556 133.014C187.124 133.551 187.822 133.978 188.65 134.296C189.502 134.589 190.65 134.907 192.093 135.249C193.962 135.713 195.465 136.177 196.601 136.641C197.736 137.105 198.707 137.814 199.511 138.766C200.339 139.719 200.753 141.001 200.753 142.614C200.753 143.957 200.398 145.191 199.689 146.314C198.979 147.414 197.902 148.293 196.459 148.953C195.015 149.588 193.241 149.905 191.135 149.905Z" fill="#666666"/>
<path d="M216.231 149.905C212.919 149.905 210.34 148.928 208.494 146.974C206.648 145.02 205.726 142.211 205.726 138.546V123.963H209.275V138.4C209.275 143.896 211.606 146.644 216.267 146.644C218.538 146.644 220.278 145.972 221.484 144.629C222.691 143.261 223.294 141.185 223.294 138.4V123.963H226.737V138.546C226.737 142.235 225.814 145.056 223.969 147.011C222.123 148.94 219.544 149.905 216.231 149.905Z" fill="#666666"/>
<path d="M243.703 123.963C246.921 123.963 249.453 124.757 251.299 126.345C253.144 127.933 254.067 130.119 254.067 132.904C254.067 135.688 253.144 137.875 251.299 139.462C249.453 141.05 246.921 141.844 243.703 141.844H237.563V149.612H234.014V123.963H243.703ZM243.597 138.656C245.845 138.656 247.56 138.168 248.743 137.191C249.926 136.189 250.518 134.76 250.518 132.904C250.518 131.047 249.926 129.63 248.743 128.653C247.56 127.652 245.845 127.151 243.597 127.151H237.563V138.656H243.597Z" fill="#666666"/>
<path d="M268.971 123.963C272.189 123.963 274.721 124.757 276.566 126.345C278.412 127.933 279.335 130.119 279.335 132.904C279.335 135.688 278.412 137.875 276.566 139.462C274.721 141.05 272.189 141.844 268.971 141.844H262.831V149.612H259.281V123.963H268.971ZM268.864 138.656C271.112 138.656 272.828 138.168 274.011 137.191C275.194 136.189 275.785 134.76 275.785 132.904C275.785 131.047 275.194 129.63 274.011 128.653C272.828 127.652 271.112 127.151 268.864 127.151H262.831V138.656H268.864Z" fill="#666666"/>
<path d="M296.111 149.905C293.603 149.905 291.343 149.343 289.332 148.22C287.321 147.072 285.736 145.496 284.576 143.493C283.44 141.49 282.872 139.255 282.872 136.788C282.872 134.32 283.44 132.085 284.576 130.082C285.736 128.079 287.321 126.516 289.332 125.392C291.343 124.244 293.603 123.67 296.111 123.67C298.596 123.67 300.844 124.244 302.855 125.392C304.866 126.516 306.439 128.079 307.575 130.082C308.711 132.061 309.279 134.296 309.279 136.788C309.279 139.279 308.711 141.527 307.575 143.53C306.439 145.508 304.866 147.072 302.855 148.22C300.844 149.343 298.596 149.905 296.111 149.905ZM296.111 146.644C297.933 146.644 299.566 146.217 301.009 145.362C302.476 144.507 303.624 143.334 304.452 141.844C305.304 140.33 305.73 138.644 305.73 136.788C305.73 134.931 305.304 133.258 304.452 131.768C303.624 130.253 302.476 129.068 301.009 128.213C299.566 127.358 297.933 126.931 296.111 126.931C294.289 126.931 292.633 127.358 291.142 128.213C289.675 129.068 288.516 130.253 287.664 131.768C286.836 133.258 286.422 134.931 286.422 136.788C286.422 138.644 286.836 140.33 287.664 141.844C288.516 143.334 289.675 144.507 291.142 145.362C292.633 146.217 294.289 146.644 296.111 146.644Z" fill="#666666"/>
<path d="M331.314 149.612L325.955 141.734C325.292 141.783 324.772 141.807 324.393 141.807H318.253V149.612H314.704V123.963H324.393C327.611 123.963 330.143 124.757 331.989 126.345C333.834 127.933 334.757 130.119 334.757 132.904C334.757 134.882 334.284 136.568 333.337 137.96C332.391 139.352 331.042 140.366 329.291 141.001L335.183 149.612H331.314ZM324.287 138.693C326.535 138.693 328.25 138.192 329.433 137.191C330.616 136.189 331.208 134.76 331.208 132.904C331.208 131.047 330.616 129.63 329.433 128.653C328.25 127.652 326.535 127.151 324.287 127.151H318.253V138.693H324.287Z" fill="#666666"/>
<path d="M345.078 127.151H336.56V123.963H357.11V127.151H348.592V149.612H345.078V127.151Z" fill="#666666"/>
<path d="M360.151 149.832C359.489 149.832 358.921 149.6 358.448 149.136C357.974 148.647 357.738 148.037 357.738 147.304C357.738 146.595 357.974 146.009 358.448 145.545C358.921 145.056 359.489 144.812 360.151 144.812C360.814 144.812 361.37 145.044 361.819 145.508C362.269 145.972 362.494 146.571 362.494 147.304C362.494 148.037 362.257 148.647 361.784 149.136C361.334 149.6 360.79 149.832 360.151 149.832Z" fill="#666666"/>
<path d="M387.094 123.963C390.312 123.963 392.844 124.757 394.69 126.345C396.535 127.933 397.458 130.119 397.458 132.904C397.458 135.688 396.535 137.875 394.69 139.462C392.844 141.05 390.312 141.844 387.094 141.844H380.954V149.612H377.405V123.963H387.094ZM386.988 138.656C389.236 138.656 390.951 138.168 392.134 137.191C393.317 136.189 393.909 134.76 393.909 132.904C393.909 131.047 393.317 129.63 392.134 128.653C390.951 127.652 389.236 127.151 386.988 127.151H380.954V138.656H386.988Z" fill="#666666"/>
<path d="M419.283 149.612L413.924 141.734C413.261 141.783 412.74 141.807 412.362 141.807H406.222V149.612H402.672V123.963H412.362C415.58 123.963 418.112 124.757 419.957 126.345C421.803 127.933 422.726 130.119 422.726 132.904C422.726 134.882 422.252 136.568 421.306 137.96C420.36 139.352 419.011 140.366 417.26 141.001L423.152 149.612H419.283ZM412.255 138.693C414.503 138.693 416.219 138.192 417.402 137.191C418.585 136.189 419.176 134.76 419.176 132.904C419.176 131.047 418.585 129.63 417.402 128.653C416.219 127.652 414.503 127.151 412.255 127.151H406.222V138.693H412.255Z" fill="#666666"/>
<path d="M439.676 149.905C437.167 149.905 434.908 149.343 432.897 148.22C430.885 147.072 429.3 145.496 428.141 143.493C427.005 141.49 426.437 139.255 426.437 136.788C426.437 134.32 427.005 132.085 428.141 130.082C429.3 128.079 430.885 126.516 432.897 125.392C434.908 124.244 437.167 123.67 439.676 123.67C442.16 123.67 444.408 124.244 446.419 125.392C448.43 126.516 450.004 128.079 451.14 130.082C452.275 132.061 452.843 134.296 452.843 136.788C452.843 139.279 452.275 141.527 451.14 143.53C450.004 145.508 448.43 147.072 446.419 148.22C444.408 149.343 442.16 149.905 439.676 149.905ZM439.676 146.644C441.498 146.644 443.13 146.217 444.574 145.362C446.041 144.507 447.188 143.334 448.016 141.844C448.868 140.33 449.294 138.644 449.294 136.788C449.294 134.931 448.868 133.258 448.016 131.768C447.188 130.253 446.041 129.068 444.574 128.213C443.13 127.358 441.498 126.931 439.676 126.931C437.854 126.931 436.197 127.358 434.707 128.213C433.24 129.068 432.08 130.253 431.228 131.768C430.4 133.258 429.986 134.931 429.986 136.788C429.986 138.644 430.4 140.33 431.228 141.844C432.08 143.334 433.24 144.507 434.707 145.362C436.197 146.217 437.854 146.644 439.676 146.644Z" fill="#666666"/>
<path d="M462.855 127.151H454.337V123.963H474.887V127.151H466.369V149.612H462.855V127.151Z" fill="#666666"/>
<path d="M496.783 146.424V149.612H478.753V123.963H496.286V127.151H482.302V135.029H494.76V138.143H482.302V146.424H496.783Z" fill="#666666"/>
<path d="M513.535 149.905C511.05 149.905 508.803 149.343 506.791 148.22C504.804 147.072 503.242 145.508 502.106 143.53C500.971 141.527 500.403 139.279 500.403 136.788C500.403 134.296 500.971 132.061 502.106 130.082C503.242 128.079 504.816 126.516 506.827 125.392C508.838 124.244 511.086 123.67 513.57 123.67C515.511 123.67 517.285 124.012 518.894 124.696C520.503 125.355 521.876 126.345 523.011 127.664L520.704 129.972C518.835 127.945 516.505 126.931 513.712 126.931C511.867 126.931 510.199 127.358 508.708 128.213C507.217 129.068 506.046 130.253 505.194 131.768C504.366 133.258 503.952 134.931 503.952 136.788C503.952 138.644 504.366 140.33 505.194 141.844C506.046 143.334 507.217 144.507 508.708 145.362C510.199 146.217 511.867 146.644 513.712 146.644C516.481 146.644 518.812 145.618 520.704 143.566L523.011 145.875C521.876 147.194 520.492 148.195 518.859 148.879C517.25 149.563 515.475 149.905 513.535 149.905Z" fill="#666666"/>
<path d="M532.731 127.151H524.213V123.963H544.763V127.151H536.245V149.612H532.731V127.151Z" fill="#666666"/>
<path d="M547.804 149.832C547.142 149.832 546.574 149.6 546.1 149.136C545.627 148.647 545.391 148.037 545.391 147.304C545.391 146.595 545.627 146.009 546.1 145.545C546.574 145.056 547.142 144.812 547.804 144.812C548.467 144.812 549.023 145.044 549.472 145.508C549.922 145.972 550.147 146.571 550.147 147.304C550.147 148.037 549.91 148.647 549.437 149.136C548.987 149.6 548.443 149.832 547.804 149.832Z" fill="#666666"/>
</svg>
